<!DOCTYPE svg PUBLIC "-//W3C//DTD SVG 1.1//EN" "http://www.w3.org/Graphics/SVG/1.1/DTD/svg11.dtd">
<!-- Uploaded to: SVG Repo, www.svgrepo.com, Transformed by: SVG Repo Mixer Tools -->
<svg version="1.1" id="Layer_1" xmlns="http://www.w3.org/2000/svg" xmlns:xlink="http://www.w3.org/1999/xlink" viewBox="0 0 512 512" xml:space="preserve" width="800px" height="800px" fill="#683636" stroke="#683636" transform="matrix(1, 0, 0, 1, 0, 0)">
<g id="SVGRepo_bgCarrier" stroke-width="0"/>
<g id="SVGRepo_tracerCarrier" stroke-linecap="round" stroke-linejoin="round" stroke="#CCCCCC" stroke-width="4.096"/>
<g id="SVGRepo_iconCarrier"> <circle style="fill:#CAA4E2;" cx="256" cy="256" r="256"/> <path style="fill:#8651a9;" d="M408.245,179.465L110.761,329.519l180.107,180.107C407.319,493.764,498.866,399.61,510.7,281.924 L408.245,179.465z"/> <rect x="233.417" y="325.439" style="fill:#435284;" width="24.533" height="122.656"/> <path style="fill:#B20040;" d="M307.021,329.519h-196.26v-98.13c0-40.646,32.951-73.597,73.597-73.597h171.727"/> <polygon style="fill:#940030;" points="356.087,157.793 241.635,157.793 241.635,329.519 307.021,329.519 "/> <path style="fill:#435284;" d="M429.684,231.39c0-40.646-32.951-73.597-73.597-73.597s-73.597,32.951-73.597,73.597v98.13h147.196 v-98.13H429.684z"/> <path style="fill:#E03A00;" d="M233.424,214.614c-4.284,0-7.758-3.474-7.758-7.758v-90.372h-41.308 c-4.284,0-7.758-3.474-7.758-7.758s3.474-7.758,7.758-7.758h49.066c4.284,0,7.758,3.474,7.758,7.758v98.13 C241.181,211.142,237.709,214.614,233.424,214.614z"/> <rect x="297.029" y="220.47" style="fill:#FFC61B;" width="118.105" height="78.739"/> <polygon style="fill:#FFEDB5;" points="415.141,220.472 356.087,259.843 297.031,220.472 "/> </g>
</svg>